<svg xmlns="http://www.w3.org/2000/svg" version="1.1" xmlns:xlink="http://www.w3.org/1999/xlink" width="512"
    height="512" x="0" y="0" viewBox="0 0 100 100" style="enable-background:new 0 0 512 512" xml:space="preserve"
    class="">
    <g>
        <path fill-rule="evenodd"
            d="M36.882 9.158c6.492-8.877 19.744-8.877 26.236 0a6.751 6.751 0 0 0 6.485 2.687c10.869-1.687 20.239 7.683 18.552 18.552a6.751 6.751 0 0 0 2.686 6.485c8.879 6.492 8.879 19.744 0 26.236a6.751 6.751 0 0 0-2.686 6.485c1.687 10.869-7.683 20.239-18.552 18.552a6.751 6.751 0 0 0-6.485 2.686c-6.492 8.879-19.744 8.879-26.236 0a6.751 6.751 0 0 0-6.485-2.686c-10.869 1.687-20.24-7.683-18.552-18.552a6.751 6.751 0 0 0-2.687-6.485c-8.877-6.492-8.877-19.744 0-26.236a6.752 6.752 0 0 0 2.687-6.485c-1.687-10.869 7.683-20.24 18.552-18.552a6.752 6.752 0 0 0 6.485-2.687zM71.35 40.111a4.75 4.75 0 0 0-7.003-6.42L46.544 52.786l-5.17-4.55a4.75 4.75 0 0 0-6.425 6.997l8.671 7.766a4.751 4.751 0 0 0 6.715-.288z"
            clip-rule="evenodd" opacity="1" data-original="url(#a)" class=""></path>
    </g>
</svg>