<svg xmlns="http://www.w3.org/2000/svg" version="1.1" xmlns:xlink="http://www.w3.org/1999/xlink" x="0" y="0">
    <symbol id="home" viewBox="0 0 24 24">
        <g>
            <path fill-rule="evenodd"
                d="M10.024 2.746a3.5 3.5 0 0 1 3.952 0l6.5 4.448A3.5 3.5 0 0 1 22 10.082V18.5a3.5 3.5 0 0 1-3.5 3.5h-13A3.5 3.5 0 0 1 2 18.5v-8.418a3.5 3.5 0 0 1 1.524-2.888zM9.5 17.5a.5.5 0 0 0 0 1h5a.5.5 0 0 0 0-1z"
                clip-rule="evenodd" opacity="1" data-original="#000000" class=""></path>
        </g>
    </symbol>
    <symbol id="about" viewBox="0 0 24 24">
        <g>
            <path
                d="M20.218 4.634C18.792 2.985 15.72 2 12 2H12c-3.72 0-6.792.984-8.218 2.634-2.366 2.737-2.366 9.995 0 12.733a6.113 6.113 0 0 0 1.645 1.274l.332 1.999a1.999 1.999 0 0 0 3.083 1.335l2.732-1.823a1.011 1.011 0 0 1 .56-.16c3.662-.025 6.683-1.007 8.084-2.626 2.366-2.737 2.366-9.995 0-12.732ZM12 5.75A1.25 1.25 0 1 1 10.75 7 1.25 1.25 0 0 1 12 5.75Zm1 10.75h-2a1 1 0 0 1 0-2v-3a1 1 0 0 1 0-2h1a1 1 0 0 1 1 1v4a1 1 0 0 1 0 2Z"
                data-name="Layer 2" opacity="1" data-original="#000000" class=""></path>
        </g>
    </symbol>
    <symbol id="check" viewBox="0 0 100 100">
        <g>
            <path fill-rule="evenodd"
                d="M36.882 9.158c6.492-8.877 19.744-8.877 26.236 0a6.751 6.751 0 0 0 6.485 2.687c10.869-1.687 20.239 7.683 18.552 18.552a6.751 6.751 0 0 0 2.686 6.485c8.879 6.492 8.879 19.744 0 26.236a6.751 6.751 0 0 0-2.686 6.485c1.687 10.869-7.683 20.239-18.552 18.552a6.751 6.751 0 0 0-6.485 2.686c-6.492 8.879-19.744 8.879-26.236 0a6.751 6.751 0 0 0-6.485-2.686c-10.869 1.687-20.24-7.683-18.552-18.552a6.751 6.751 0 0 0-2.687-6.485c-8.877-6.492-8.877-19.744 0-26.236a6.752 6.752 0 0 0 2.687-6.485c-1.687-10.869 7.683-20.24 18.552-18.552a6.752 6.752 0 0 0 6.485-2.687zM71.35 40.111a4.75 4.75 0 0 0-7.003-6.42L46.544 52.786l-5.17-4.55a4.75 4.75 0 0 0-6.425 6.997l8.671 7.766a4.751 4.751 0 0 0 6.715-.288z"
                clip-rule="evenodd" opacity="1" data-original="url(#a)" class=""></path>
        </g>
    </symbol>
    <symbol id="phone" viewBox="0 0 512 512">
        <g>
            <path
                d="M256 0C114.62 0 0 114.62 0 256s114.62 256 256 256 256-114.62 256-256S397.38 0 256 0zm129.65 369.37c-1.93 2.1-3.92 4.15-5.77 6.31-11.14 12.95-25.27 19-49.19 18.19-14.87-1-35.83-6.13-56.29-13.45-72.14-25.82-142.53-94.61-157.49-190.83-2.66-17.13.14-32.78 13.12-45.52 4.35-4.26 8.22-9 12.47-13.36 16-16.47 39.38-16.89 55.95-1.07 5.25 5 10.59 9.93 15.71 15.09a38.07 38.07 0 0 1 1.37 52.79c-4 4.44-8.2 8.66-12.42 12.87-4.61 4.6-10.34 7.24-16.49 9.16-7.59 2.38-9 5.56-5.55 12.81q32.7 68.49 102.37 98.63c6.21 2.68 9.08 1.47 11.58-4.69 5.48-13.51 15.53-23.36 27.08-31.32 13.07-9 31.79-7 44.17 3.64a263.23 263.23 0 0 1 19.43 18.5 38.22 38.22 0 0 1-.05 52.25z"
                data-name="Layer 2" opacity="1" data-original="#000000" class=""></path>
        </g>
    </symbol>
    <symbol id="reserv" viewBox="0 0 24 24">
        <g>
            <path
                d="M19.5 24a1 1 0 0 1-.929-.628l-.844-2.113-2.116-.891a1.007 1.007 0 0 1 .035-1.857l2.088-.791.837-2.092a1.008 1.008 0 0 1 1.858 0l.841 2.1 2.1.841a1.007 1.007 0 0 1 0 1.858l-2.1.841-.841 2.1A1 1 0 0 1 19.5 24ZM10 21a2 2 0 0 1-1.936-1.413L6.45 14.54l-5.063-1.694a2.032 2.032 0 0 1 .052-3.871l5.023-1.534 1.692-5.054A1.956 1.956 0 0 1 10.108 1a2 2 0 0 1 1.917 1.439l1.532 5.015 5.03 1.61a2.042 2.042 0 0 1 0 3.872l-5.039 1.612-1.612 5.039A2 2 0 0 1 10 21ZM20.5 7a1 1 0 0 1-.97-.757l-.357-1.43-1.433-.385a1 1 0 0 1 .034-1.94l1.4-.325.356-1.406a1 1 0 0 1 1.94 0l.354 1.418 1.418.355a1 1 0 0 1 0 1.94l-1.418.355-.354 1.418A1 1 0 0 1 20.5 7Z"
                opacity="1" data-original="#000000" class=""></path>
        </g>
    </symbol>
    <symbol id="goIt" viewBox="0 0 215 215">
        <path fill-rule="evenodd" clip-rule="evenodd"
            d="M107.5 215C166.871 215 215 166.871 215 107.5C215 48.1294 166.871 0 107.5 0C48.1289 0 0 48.1294 0 107.5C0 166.871 48.1289 215 107.5 215ZM159 113.928C164.333 110.849 164.333 103.151 159 100.072L87 58.5026C81.667 55.4233 75 59.2723 75 65.4308V148.569C75 154.728 81.667 158.577 87 155.497L159 113.928Z" />
    </symbol>
    <symbol id="whatsapp" viewBox="0 0 152 152">
        <g>
            <g data-name="Layer 2">
                <g data-name="08.whatsapp">
                    <path
                        d="m97 55-.15-.15A29.51 29.51 0 0 0 49.7 89.08l1.3 2.56-2.43 11.78v.15l11.67-2.77 2.66 1.32a29.53 29.53 0 0 0 34-5.56A29.53 29.53 0 0 0 97 55zm-1.18 33c-1.43 2.25-3.7 5-6.53 5.69-5 1.21-12.61 0-22.14-8.81l-.12-.11c-8.29-7.74-10.49-14.19-10-19.3.29-2.9 2.71-5.52 4.75-7.24a2.71 2.71 0 0 1 4.25 1l3.07 7a2.7 2.7 0 0 1-.33 2.76l-1.56 2a2.65 2.65 0 0 0-.21 2.95 29 29 0 0 0 5.27 5.85 30.59 30.59 0 0 0 7.3 5.23 2.64 2.64 0 0 0 2.89-.61l1.79-1.81a2.72 2.72 0 0 1 2.75-.84l7.3 2.1a2.73 2.73 0 0 1 1.54 4.08z"
                        opacity="1" data-original="#000000" class=""></path>
                    <path
                        d="M76 0a76 76 0 1 0 76 76A76 76 0 0 0 76 0zm37.67 76.89a37.71 37.71 0 0 1-54.46 32.55l-19 4.52a1.47 1.47 0 0 1-1.54-.6 1.44 1.44 0 0 1-.23-1.13l4-19.42a37.7 37.7 0 1 1 71.26-15.92z"
                        opacity="1" data-original="#000000" class=""></path>
                </g>
            </g>
        </g>
    </symbol>
    <symbol id="facebook" viewBox="0 0 512 512">
        <g>
            <path fill-rule="evenodd"
                d="M255.182 7.758q69.23.79 125.086 34.03a249.734 249.734 0 0 1 88.89 89.434q33.037 56.191 33.825 125.843-1.962 95.3-60.117 162.79c-38.77 44.995-88.425 72.83-139.827 83.501V325.23h48.597l10.99-70h-73.587v-45.848a39.844 39.844 0 0 1 8.474-26.323q8.827-11.253 31.09-11.829h44.436v-61.318q-.957-.308-18.15-2.434a360.743 360.743 0 0 0-39.16-2.434q-44.433.205-70.281 25.068-25.85 24.855-26.409 71.92v53.198h-56v70h56v178.127c-63.115-10.67-112.77-38.506-151.54-83.5S8.691 320.598 7.383 257.065q.785-69.655 33.824-125.843a249.739 249.739 0 0 1 88.891-89.435q55.854-33.233 125.084-34.03z"
                opacity="1" data-original="#000000" class=""></path>
        </g>
    </symbol>
    <symbol id="twitter" viewBox="0 0 49.652 49.652">
        <g>
            <path
                d="M24.826 0C11.137 0 0 11.137 0 24.826c0 13.688 11.137 24.826 24.826 24.826 13.688 0 24.826-11.138 24.826-24.826C49.652 11.137 38.516 0 24.826 0zm11.075 19.144c.011.246.017.494.017.742 0 7.551-5.746 16.255-16.259 16.255-3.227 0-6.231-.943-8.759-2.565.447.053.902.08 1.363.08 2.678 0 5.141-.914 7.097-2.446a5.72 5.72 0 0 1-5.338-3.969 5.76 5.76 0 0 0 2.58-.096 5.715 5.715 0 0 1-4.583-5.603l.001-.072a5.69 5.69 0 0 0 2.587.714 5.71 5.71 0 0 1-2.541-4.755c0-1.048.281-2.03.773-2.874a16.225 16.225 0 0 0 11.777 5.972 5.707 5.707 0 0 1-.147-1.303 5.714 5.714 0 0 1 9.884-3.91 11.406 11.406 0 0 0 3.63-1.387 5.74 5.74 0 0 1-2.516 3.162 11.36 11.36 0 0 0 3.282-.899 11.494 11.494 0 0 1-2.848 2.954z"
                opacity="1" data-original="#000000" class=""></path>
        </g>
    </symbol>
</svg>